<?xml version="1.0" encoding="UTF-8"?>
<svg xmlns="http://www.w3.org/2000/svg" xmlns:xlink="http://www.w3.org/1999/xlink" width="70px" height="70px" viewBox="0 0 70 70" version="1.1">
<g id="surface1">
<path style=" stroke:none;fill-rule:nonzero;fill:rgb(0%,0%,0%);fill-opacity:1;" d="M 70 35.214844 C 70 15.761719 54.328125 -0.00390625 35 -0.00390625 C 15.664062 0 -0.0078125 15.761719 -0.0078125 35.21875 C -0.0078125 52.792969 12.792969 67.363281 29.523438 70.003906 L 29.523438 45.394531 L 20.640625 45.394531 L 20.640625 35.21875 L 29.53125 35.21875 L 29.53125 27.453125 C 29.53125 18.628906 34.757812 13.753906 42.753906 13.753906 C 46.585938 13.753906 50.589844 14.441406 50.589844 14.441406 L 50.589844 23.105469 L 46.171875 23.105469 C 41.828125 23.105469 40.472656 25.820312 40.472656 28.609375 L 40.472656 35.214844 L 50.175781 35.214844 L 48.628906 45.390625 L 40.46875 45.390625 L 40.46875 70 C 57.199219 67.359375 70 52.789062 70 35.214844 Z M 70 35.214844 "/>
</g>
</svg>
