<?xml version="1.0" encoding="UTF-8"?>
<svg xmlns="http://www.w3.org/2000/svg" xmlns:xlink="http://www.w3.org/1999/xlink" width="70px" height="70px" viewBox="0 0 70 70" version="1.1">
<g id="surface1">
<path style=" stroke:none;fill-rule:nonzero;fill:rgb(0%,0%,0%);fill-opacity:1;" d="M 35 0 C 25.5 0 24.308594 0.0429688 20.574219 0.210938 C 16.84375 0.386719 14.300781 0.972656 12.074219 1.835938 C 9.738281 2.714844 7.625 4.09375 5.875 5.875 C 4.09375 7.625 2.71875 9.738281 1.835938 12.074219 C 0.972656 14.296875 0.378906 16.84375 0.210938 20.5625 C 0.0429688 24.304688 0 25.492188 0 35.003906 C 0 44.507812 0.0429688 45.695312 0.210938 49.429688 C 0.386719 53.15625 0.972656 55.699219 1.835938 57.925781 C 2.734375 60.226562 3.929688 62.175781 5.875 64.125 C 7.816406 66.070312 9.769531 67.269531 12.070312 68.164062 C 14.300781 69.027344 16.839844 69.621094 20.566406 69.789062 C 24.304688 69.957031 25.492188 70 35 70 C 44.507812 70 45.691406 69.957031 49.429688 69.789062 C 53.152344 69.613281 55.703125 69.027344 57.929688 68.164062 C 60.265625 67.285156 62.378906 65.90625 64.125 64.125 C 66.070312 62.175781 67.265625 60.226562 68.164062 57.925781 C 69.023438 55.699219 69.613281 53.15625 69.789062 49.429688 C 69.957031 45.695312 70 44.507812 70 35 C 70 25.492188 69.957031 24.304688 69.789062 20.566406 C 69.613281 16.84375 69.023438 14.296875 68.164062 12.074219 C 67.28125 9.738281 65.90625 7.625 64.125 5.875 C 62.378906 4.09375 60.261719 2.714844 57.925781 1.835938 C 55.695312 0.972656 53.148438 0.378906 49.425781 0.210938 C 45.6875 0.0429688 44.503906 0 34.992188 0 L 35.003906 0 Z M 31.863281 6.308594 L 35.003906 6.308594 C 44.347656 6.308594 45.457031 6.339844 49.144531 6.511719 C 52.558594 6.664062 54.410156 7.234375 55.644531 7.714844 C 57.277344 8.347656 58.445312 9.109375 59.671875 10.332031 C 60.894531 11.558594 61.652344 12.722656 62.285156 14.359375 C 62.769531 15.589844 63.335938 17.441406 63.488281 20.855469 C 63.660156 24.542969 63.695312 25.652344 63.695312 34.992188 C 63.695312 44.332031 63.660156 45.441406 63.488281 49.132812 C 63.335938 52.542969 62.765625 54.394531 62.285156 55.628906 C 61.726562 57.148438 60.832031 58.523438 59.667969 59.648438 C 58.441406 60.875 57.277344 61.628906 55.640625 62.265625 C 54.417969 62.746094 52.5625 63.316406 49.144531 63.472656 C 45.457031 63.640625 44.347656 63.679688 35.003906 63.679688 C 25.660156 63.679688 24.546875 63.640625 20.859375 63.472656 C 17.449219 63.316406 15.597656 62.746094 14.363281 62.265625 C 12.84375 61.703125 11.46875 60.8125 10.339844 59.648438 C 9.171875 58.519531 8.277344 57.144531 7.714844 55.625 C 7.234375 54.394531 6.664062 52.539062 6.511719 49.125 C 6.34375 45.4375 6.308594 44.332031 6.308594 34.984375 C 6.308594 25.636719 6.34375 24.535156 6.511719 20.847656 C 6.667969 17.433594 7.234375 15.578125 7.71875 14.34375 C 8.351562 12.714844 9.113281 11.546875 10.339844 10.320312 C 11.5625 9.09375 12.726562 8.339844 14.363281 7.703125 C 15.597656 7.222656 17.449219 6.65625 20.859375 6.496094 C 24.089844 6.347656 25.339844 6.304688 31.863281 6.300781 Z M 53.6875 12.117188 C 51.367188 12.117188 49.484375 14 49.484375 16.320312 C 49.484375 18.636719 51.367188 20.519531 53.6875 20.519531 C 56.003906 20.519531 57.886719 18.636719 57.886719 16.320312 C 57.886719 14 56.003906 12.117188 53.6875 12.117188 Z M 35.003906 17.027344 C 28.515625 16.925781 22.476562 20.328125 19.203125 25.933594 C 15.929688 31.535156 15.929688 38.46875 19.203125 44.070312 C 22.476562 49.675781 28.515625 53.078125 35.003906 52.976562 C 44.820312 52.824219 52.699219 44.820312 52.699219 35.003906 C 52.699219 25.183594 44.820312 17.179688 35.003906 17.027344 Z M 35.003906 23.332031 C 41.449219 23.332031 46.671875 28.554688 46.671875 35 C 46.671875 41.445312 41.449219 46.667969 35.003906 46.667969 C 28.558594 46.667969 23.335938 41.445312 23.335938 35 C 23.335938 28.554688 28.558594 23.332031 35.003906 23.332031 Z M 35.003906 23.332031 "/>
</g>
</svg>
