<?xml version="1.0" encoding="UTF-8"?>
<svg xmlns="http://www.w3.org/2000/svg" xmlns:xlink="http://www.w3.org/1999/xlink" width="70px" height="70px" viewBox="0 0 70 70" version="1.1">
<g id="surface1">
<path style=" stroke:none;fill-rule:nonzero;fill:rgb(0%,0%,0%);fill-opacity:1;" d="M 0 17.5 C 0 12.667969 3.917969 8.75 8.75 8.75 L 61.25 8.75 C 66.082031 8.75 70 12.667969 70 17.5 L 70 52.5 C 70 57.332031 66.082031 61.25 61.25 61.25 L 8.75 61.25 C 3.917969 61.25 0 57.332031 0 52.5 Z M 8.75 13.125 C 6.332031 13.125 4.375 15.082031 4.375 17.5 L 4.375 18.449219 L 35 36.824219 L 65.625 18.449219 L 65.625 17.5 C 65.625 15.082031 63.667969 13.125 61.25 13.125 Z M 65.625 23.550781 L 45.027344 35.910156 L 65.625 48.585938 Z M 65.476562 53.632812 L 40.800781 38.449219 L 35 41.925781 L 29.199219 38.449219 L 4.523438 53.628906 C 5.035156 55.542969 6.769531 56.875 8.75 56.875 L 61.25 56.875 C 63.230469 56.875 64.964844 55.546875 65.476562 53.632812 Z M 4.375 48.585938 L 24.972656 35.910156 L 4.375 23.550781 Z M 4.375 48.585938 "/>
</g>
</svg>
