<?xml version="1.0" encoding="UTF-8"?>
<svg xmlns="http://www.w3.org/2000/svg" xmlns:xlink="http://www.w3.org/1999/xlink" width="70px" height="70px" viewBox="0 0 70 70" version="1.1">
<g id="surface1">
<path style=" stroke:none;fill-rule:nonzero;fill:rgb(0%,0%,0%);fill-opacity:1;" d="M 59.503906 10.175781 C 53.023438 3.632812 44.183594 -0.03125 34.972656 0 C 15.867188 0 0.296875 15.566406 0.28125 34.675781 C 0.28125 40.796875 1.882812 46.75 4.90625 52.023438 L 0 70 L 18.390625 65.179688 C 23.480469 67.949219 29.179688 69.398438 34.972656 69.402344 L 34.992188 69.402344 C 54.101562 69.402344 69.667969 53.835938 69.683594 34.707031 C 69.695312 25.5 66.027344 16.667969 59.5 10.175781 Z M 34.972656 63.53125 C 29.808594 63.53125 24.734375 62.140625 20.292969 59.503906 L 19.242188 58.875 L 8.328125 61.734375 L 11.242188 51.089844 L 10.5625 49.992188 C 7.671875 45.402344 6.144531 40.082031 6.15625 34.660156 C 6.15625 18.796875 19.09375 5.855469 34.992188 5.855469 C 42.640625 5.839844 49.980469 8.882812 55.378906 14.300781 C 60.796875 19.703125 63.832031 27.039062 63.8125 34.6875 C 63.796875 50.609375 50.859375 63.53125 34.972656 63.53125 Z M 50.789062 41.941406 C 49.925781 41.511719 45.671875 39.414062 44.871094 39.117188 C 44.074219 38.832031 43.492188 38.683594 42.921875 39.550781 C 42.339844 40.410156 40.679688 42.375 40.179688 42.941406 C 39.679688 43.523438 39.164062 43.589844 38.296875 43.160156 C 37.4375 42.722656 34.640625 41.8125 31.332031 38.851562 C 28.753906 36.554688 27.023438 33.710938 26.507812 32.847656 C 26.007812 31.980469 26.460938 31.515625 26.894531 31.085938 C 27.273438 30.699219 27.753906 30.070312 28.1875 29.570312 C 28.625 29.070312 28.769531 28.703125 29.054688 28.125 C 29.339844 27.539062 29.203125 27.042969 28.988281 26.609375 C 28.769531 26.175781 27.042969 21.902344 26.3125 20.175781 C 25.609375 18.476562 24.898438 18.710938 24.363281 18.691406 C 23.867188 18.660156 23.285156 18.660156 22.703125 18.660156 C 21.8125 18.679688 20.976562 19.074219 20.386719 19.738281 C 19.589844 20.605469 17.363281 22.703125 17.363281 26.976562 C 17.363281 31.25 20.46875 35.359375 20.90625 35.941406 C 21.335938 36.523438 27.007812 45.269531 35.707031 49.03125 C 37.765625 49.925781 39.382812 50.457031 40.648438 50.859375 C 42.726562 51.523438 44.601562 51.421875 46.097656 51.210938 C 47.761719 50.957031 51.222656 49.109375 51.953125 47.082031 C 52.671875 45.054688 52.671875 43.320312 52.453125 42.957031 C 52.238281 42.589844 51.65625 42.375 50.789062 41.941406 Z M 50.789062 41.941406 "/>
</g>
</svg>
