<?xml version="1.0" standalone="no"?>
<!DOCTYPE svg PUBLIC "-//W3C//DTD SVG 20010904//EN"
 "http://www.w3.org/TR/2001/REC-SVG-20010904/DTD/svg10.dtd">
<svg version="1.0" xmlns="http://www.w3.org/2000/svg"
 width="250.000000pt" height="250.000000pt" viewBox="0 0 250.000000 250.000000"
 preserveAspectRatio="xMidYMid meet">

<g transform="translate(0.000000,250.000000) scale(0.100000,-0.100000)"
fill="#000000" stroke="none">
<path d="M1399 1763 c-13 -16 -12 -17 4 -4 16 13 21 21 13 21 -2 0 -10 -8 -17
-17z"/>
<path d="M1090 1766 c0 -2 8 -10 18 -17 15 -13 16 -12 3 4 -13 16 -21 21 -21
13z"/>
<path d="M1449 1733 c-13 -16 -12 -17 4 -4 16 13 21 21 13 21 -2 0 -10 -8 -17
-17z"/>
<path d="M1060 1727 c0 -2 15 -16 33 -33 l32 -29 -29 33 c-28 30 -36 37 -36
29z"/>
<path d="M1394 1688 l-19 -23 23 19 c12 11 22 21 22 23 0 8 -8 2 -26 -19z"/>
<path d="M1060 1581 c0 -5 5 -13 10 -16 6 -3 10 -2 10 4 0 5 -4 13 -10 16 -5
3 -10 2 -10 -4z"/>
<path d="M1110 1582 c0 -5 9 -17 20 -27 11 -10 20 -15 20 -12 0 4 -9 16 -20
27 -11 11 -20 16 -20 12z"/>
<path d="M1220 1563 c0 -21 3 -24 9 -14 5 8 7 20 4 28 -8 21 -13 15 -13 -14z"/>
<path d="M1320 1563 c0 -21 3 -24 9 -14 5 8 7 20 4 28 -8 21 -13 15 -13 -14z"/>
<path d="M1480 1584 c0 -6 7 -19 16 -30 14 -18 14 -18 3 6 -14 31 -19 36 -19
24z"/>
<path d="M552 1349 c-43 -9 -70 -34 -83 -79 -22 -71 22 -142 96 -156 38 -7 95
18 95 42 0 12 -4 13 -21 4 -11 -6 -23 -18 -26 -26 -12 -32 -102 -1 -122 42
-14 32 -14 54 0 34 8 -12 9 -9 5 12 -3 15 -2 30 4 33 16 10 12 25 -5 19 -8 -4
-15 -2 -15 4 0 8 22 22 34 22 2 0 2 -23 0 -51 -3 -54 13 -92 44 -104 12 -4 10
0 -6 18 -31 33 -31 111 0 144 12 13 16 23 10 23 -6 0 -14 -4 -17 -10 -3 -5
-14 -10 -23 -10 -12 1 -9 5 10 15 20 11 33 12 53 5 15 -6 31 -7 37 -4 6 4 8 3
5 -2 -3 -6 2 -15 12 -21 15 -10 17 -8 14 11 -6 28 -54 45 -101 35z"/>
<path d="M776 1318 c-15 -51 -61 -175 -69 -185 -7 -10 -4 -13 11 -13 13 0 22
9 26 26 6 22 11 25 44 22 30 -2 38 -7 40 -25 3 -19 10 -23 39 -23 27 0 33 3
26 13 -5 6 -22 48 -37 92 -31 87 -41 105 -63 105 -7 0 -15 -6 -17 -12z m54
-56 c12 -26 22 -62 23 -79 1 -18 5 -33 10 -33 4 0 7 -4 7 -10 0 -5 -7 -10 -15
-10 -8 0 -15 9 -15 20 0 11 -6 23 -13 26 -7 2 -13 20 -14 39 -1 36 -9 55 -23
55 -5 0 -2 -14 7 -31 17 -34 14 -41 -21 -44 -23 -3 -23 -2 -10 24 8 14 11 34
8 44 -3 9 0 17 6 17 6 0 8 5 5 10 -8 13 4 32 15 25 5 -3 19 -27 30 -53z"/>
<path d="M955 1225 l0 -105 28 0 c27 0 28 2 25 37 -2 28 1 39 13 41 15 3 39
-35 39 -63 0 -10 11 -15 35 -15 l34 0 -21 36 c-20 34 -20 36 -3 73 29 66 -4
101 -97 101 l-54 0 1 -105z m45 86 c0 -5 -6 -14 -14 -20 -10 -9 -15 -8 -19 3
-3 8 -3 17 0 20 9 9 33 7 33 -3z m60 -45 c0 -26 -24 -51 -40 -41 -11 7 -14 68
-4 78 13 12 44 -14 44 -37z m-76 -11 c-4 -8 -8 -15 -10 -15 -2 0 -4 7 -4 15 0
8 4 15 10 15 5 0 7 -7 4 -15z"/>
<path d="M1182 1224 c2 -86 5 -104 18 -104 12 0 14 11 12 56 -3 39 -1 54 7 50
6 -4 11 -2 11 4 0 7 -8 9 -19 5 -17 -5 -20 -2 -18 27 3 39 14 61 28 52 6 -3
21 -30 34 -60 14 -32 30 -54 39 -54 19 0 19 1 5 -39 -15 -43 -36 -39 -51 10
-6 23 -14 37 -16 31 -7 -22 27 -82 47 -82 15 0 24 13 38 58 l18 57 3 -57 c3
-57 4 -58 32 -58 22 0 30 5 29 18 0 10 -3 12 -6 5 -2 -7 -13 -13 -24 -13 -16
0 -19 7 -17 38 2 59 -1 72 -17 72 -13 0 -13 4 -2 32 17 41 44 59 57 38 8 -13
10 -12 10 3 0 14 -6 18 -27 15 -23 -2 -32 -12 -50 -58 -12 -30 -26 -56 -31
-58 -6 -2 -18 19 -28 45 -22 59 -26 65 -58 68 l-26 3 2 -104z"/>
<path d="M1470 1328 c-1 -2 -2 -49 -3 -106 l-2 -102 71 0 c69 0 72 1 77 25 4
23 3 24 -12 12 -9 -8 -31 -17 -49 -19 -32 -5 -33 -4 -30 31 3 31 6 36 26 34
17 -2 22 2 22 22 0 17 -4 23 -15 19 -8 -4 -12 -11 -8 -18 4 -6 -1 -5 -10 3 -9
7 -17 26 -17 42 0 26 3 29 33 29 18 0 39 -6 46 -12 10 -11 12 -9 9 7 -2 10
-14 22 -28 26 -24 7 -110 12 -110 7z m35 -35 c3 -10 1 -19 -4 -21 -7 -2 -4
-10 5 -19 9 -10 13 -25 10 -37 -3 -12 -6 -36 -6 -53 0 -22 -5 -33 -14 -33 -12
0 -15 18 -15 90 0 85 9 112 24 73z"/>
<path d="M1660 1225 l0 -106 72 3 c61 3 73 6 76 21 3 16 1 17 -16 8 -30 -16
-69 -13 -76 5 -3 9 -7 41 -8 72 -1 35 -3 44 -5 25 -6 -50 -33 -32 -33 23 0 47
20 60 39 27 9 -16 10 -16 11 5 0 18 -5 22 -30 22 l-30 0 0 -105z m33 -19 c4
-10 1 -13 -9 -9 -7 3 -14 9 -14 14 0 14 17 10 23 -5z"/>
<path d="M1885 1239 c-16 -50 -33 -93 -37 -95 -15 -10 -8 -24 12 -24 15 0 20
7 20 25 0 23 4 25 40 25 36 0 40 -2 40 -25 0 -22 4 -25 35 -25 35 0 43 8 26
26 -5 5 -21 46 -35 91 -24 72 -39 93 -65 93 -4 0 -20 -41 -36 -91z m92 -8 c9
-31 17 -60 18 -66 0 -5 4 -16 8 -22 5 -8 3 -13 -6 -13 -7 0 -19 11 -25 25 -6
14 -15 25 -20 25 -5 0 -8 17 -7 38 1 25 -4 40 -16 47 -13 8 -15 15 -7 35 9 24
10 24 23 6 8 -11 22 -44 32 -75z m-43 3 c8 -31 -8 -54 -25 -37 -11 11 -2 63
11 63 4 0 11 -12 14 -26z"/>
<path d="M1392 1250 c-1 -25 -5 -56 -7 -70 l-6 -25 11 25 c6 13 9 45 7 70 l-3
45 -2 -45z"/>
<path d="M1016 943 c-6 -14 -5 -15 5 -6 7 7 10 15 7 18 -3 3 -9 -2 -12 -12z"/>
<path d="M1090 955 c0 -5 5 -17 10 -25 5 -8 10 -10 10 -5 0 6 -5 17 -10 25 -5
8 -10 11 -10 5z"/>
<path d="M1190 933 c0 -21 3 -24 9 -14 5 8 7 20 4 28 -8 21 -13 15 -13 -14z"/>
<path d="M1094 808 l-19 -23 23 19 c21 18 27 26 19 26 -2 0 -12 -10 -23 -22z"/>
<path d="M1445 770 c10 -11 20 -20 23 -20 3 0 -3 9 -13 20 -10 11 -20 20 -23
20 -3 0 3 -9 13 -20z"/>
</g>
</svg>
